<svg width="688" height="679" xmlns="http://www.w3.org/2000/svg" xmlns:xlink="http://www.w3.org/1999/xlink"><defs><linearGradient x1="50%" y1="100%" x2="50%" y2="0%" id="a"><stop stop-color="gray" stop-opacity=".25" offset="0%"/><stop stop-color="gray" stop-opacity=".12" offset="54%"/><stop stop-color="gray" stop-opacity=".1" offset="100%"/></linearGradient><linearGradient x1="27444%" y1="40932%" x2="27444%" y2="24816%" id="b"><stop stop-color="gray" stop-opacity=".25" offset="0%"/><stop stop-color="gray" stop-opacity=".12" offset="54%"/><stop stop-color="gray" stop-opacity=".1" offset="100%"/></linearGradient><linearGradient x1="27444%" y1="36144%" x2="27444%" y2="26101%" id="c"><stop stop-color="gray" stop-opacity=".25" offset="0%"/><stop stop-color="gray" stop-opacity=".12" offset="54%"/><stop stop-color="gray" stop-opacity=".1" offset="100%"/></linearGradient><path id="d" d="M.54.72h143.79v96.93H.54z"/><linearGradient x1="27444%" y1="61603%" x2="27444%" y2="45487%" id="f"><stop stop-color="gray" stop-opacity=".25" offset="0%"/><stop stop-color="gray" stop-opacity=".12" offset="54%"/><stop stop-color="gray" stop-opacity=".1" offset="100%"/></linearGradient><linearGradient x1="27444%" y1="56815%" x2="27444%" y2="46772%" id="g"><stop stop-color="gray" stop-opacity=".25" offset="0%"/><stop stop-color="gray" stop-opacity=".12" offset="54%"/><stop stop-color="gray" stop-opacity=".1" offset="100%"/></linearGradient><path id="h" d="M.54.42h143.79v96.93H.54z"/><linearGradient x1="68876%" y1="76586%" x2="68876%" y2="16326%" id="j"><stop stop-color="gray" stop-opacity=".25" offset="0%"/><stop stop-color="gray" stop-opacity=".12" offset="54%"/><stop stop-color="gray" stop-opacity=".1" offset="100%"/></linearGradient><linearGradient x1="68818%" y1="56849%" x2="68818%" y2="40967%" id="k"><stop stop-color="gray" stop-opacity=".25" offset="0%"/><stop stop-color="gray" stop-opacity=".12" offset="54%"/><stop stop-color="gray" stop-opacity=".1" offset="100%"/></linearGradient><linearGradient x1="50%" y1="100%" x2="50%" y2=".001%" id="l"><stop stop-color="#B3B3B3" stop-opacity=".25" offset="0%"/><stop stop-color="#B3B3B3" stop-opacity=".1" offset="54%"/><stop stop-color="#B3B3B3" stop-opacity=".05" offset="100%"/></linearGradient><linearGradient x1="49.98%" y1="99.949%" x2="49.98%" y2="0%" id="m"><stop stop-color="#FFF" stop-opacity=".12" offset="0%"/><stop stop-color="#FFF" stop-opacity=".09" offset="55%"/><stop stop-color="#FFF" stop-opacity=".02" offset="100%"/></linearGradient><linearGradient x1="77499%" y1="48473%" x2="77499%" y2="42515%" id="n"><stop stop-color="#FFF" stop-opacity=".12" offset="0%"/><stop stop-color="#FFF" stop-opacity=".09" offset="55%"/><stop stop-color="#FFF" stop-opacity=".02" offset="100%"/></linearGradient></defs><g fill="none" fill-rule="evenodd"><path d="M.15.21h448.44v602.6H.15z" opacity=".5" transform="translate(0 30)" fill-rule="nonzero" fill="url(#a)"/><path fill="#F2F2F2" fill-rule="nonzero" d="M5.99 38.39h434.43v581.58H5.99z"/><path fill="#E0E0E0" fill-rule="nonzero" d="M39.86 62.91h149.48v4.67H39.86z"/><path fill="#294ACE" fill-rule="nonzero" opacity=".7" d="M39.86 83.93h149.48v4.67H39.86z"/><path fill="#E0E0E0" fill-rule="nonzero" d="M211.53 62.91h149.48v4.67H211.53zm23.35 133.14h149.48v4.67H234.88zm3.51 12.84h149.48v4.67H238.39zm7.01 12.85h149.48v4.67H245.4zm-10.52 181.01h149.48v4.67H234.88zm3.51 12.85h149.48v4.67H238.39zm7.01 12.84h149.48v4.67H245.4z"/><path d="M.03.16h158.82v161.16H.03z" opacity=".5" transform="translate(41 148)" fill-rule="nonzero" fill="url(#b)"/><path fill="#F5F5F5" fill-rule="nonzero" d="M42.03 151.67h156.32v154.15H42.03z"/><path d="M.54.01h145.8v100.43H.54z" opacity=".5" transform="translate(47 161)" fill-rule="nonzero" fill="url(#c)"/><path fill="#FFF" fill-rule="nonzero" d="M48.54 162.18h143.79v96.93H48.54z"/><g transform="translate(227 222)"><mask id="e" fill="#fff"><use xlink:href="#d"/></mask><g mask="url(#e)" fill-rule="nonzero" fill="#294ACE" opacity=".4"><g transform="translate(-196 -57)"><path d="M5.35 90.61l36.21-56.06 15.18 24.52 32.7-33.86 28.03 33.86 24.52-50.21 63.06 100.43L.68 102.28z"/><circle cx="33.38" cy="11.19" r="10.51"/></g></g></g><path d="M.03.87h158.82v161.16H.03z" opacity=".5" transform="translate(41 354)" fill-rule="nonzero" fill="url(#f)"/><path fill="#F5F5F5" fill-rule="nonzero" d="M42.03 358.37h156.32v154.15H42.03z"/><path d="M.54.72h145.8v100.43H.54z" opacity=".5" transform="translate(47 367)" fill-rule="nonzero" fill="url(#g)"/><path fill="#FFF" fill-rule="nonzero" d="M48.54 368.88h143.79v96.93H48.54z"/><g transform="translate(227 429)"><mask id="i" fill="#fff"><use xlink:href="#h"/></mask><g mask="url(#i)" fill-rule="nonzero" fill="#BDBDBD" opacity=".4"><g transform="translate(-196 -57)"><path d="M5.35 90.31l36.21-56.06 15.18 24.53 32.7-33.87 28.03 33.87 24.52-50.22 63.06 100.43-204.37-7z"/><circle cx="33.38" cy="10.9" r="10.51"/></g></g></g><path transform="rotate(-78.76 312.134 300.068)" d="M-21.666 115.442h602.6v448.44h-602.6z" opacity=".5" fill-rule="nonzero" fill="url(#j)"/><path fill="#FFF" fill-rule="nonzero" d="M74.214 580.02L187.575 9.595l426.097 84.679-113.36 570.425z"/><path fill="#E0E0E0" fill-rule="nonzero" d="M213.319 42.077l302.396 60.096-.91 4.58L212.41 46.657zm-86.043 432.981l302.396 60.096-.91 4.58-302.396-60.095zm-5.246 26.335L355.7 547.83l-.91 4.58-233.67-46.437z"/><path fill="#294ACE" fill-rule="nonzero" opacity=".7" d="M116.797 527.746l87.048 17.3-.91 4.58-87.048-17.3zm91.277-459.319l151.194 30.047-.91 4.58-151.194-30.046z"/><path fill="#E0E0E0" fill-rule="nonzero" d="M202.85 94.769l272.61 54.176-.91 4.58L201.94 99.35z"/><path fill="#3AD29F" fill-rule="nonzero" opacity=".7" d="M197.61 121.119l66.432 13.202-.91 4.58L196.7 125.7z"/><path fill="#E0E0E0" fill-rule="nonzero" d="M192.38 147.464l302.396 60.096-.91 4.58-302.396-60.096z"/><path transform="rotate(-78.76 402.434 120.086)" d="M71.865-32.78h158.82v276.77H71.865z" opacity=".5" fill-rule="nonzero" fill="url(#k)"/><path fill="#FFF" fill-rule="nonzero" d="M220.561 260.23l268.029 53.266-30.275 152.341-268.029-53.265z"/><path fill="#E0E0E0" fill-rule="nonzero" d="M187.145 173.818l302.396 60.096-.91 4.58-302.396-60.095z"/><path fill="#294ACE" fill-rule="nonzero" d="M244.533 286.425l33.22 6.602-22.08 111.108-33.22-6.602z"/><path fill="#3AD29F" fill-rule="nonzero" d="M296.81 334.918l33.22 6.602-14.797 74.454-33.22-6.602z"/><path fill="#F55F44" fill-rule="nonzero" d="M349.55 381.12l33.22 6.602-7.966 40.086-33.22-6.602z"/><path fill="#FDD835" fill-rule="nonzero" d="M417.308 351.72l33.22 6.602-16.162 81.33-33.22-6.602z"/><path d="M547.45 250.01a155.89 155.89 0 0 0-223.11-1.68c-59 59.48-60 156.33-2.29 217.07 52.347 55.099 136.798 64.418 199.9 22.06l112.69 117.21a7.59 7.59 0 0 0 10.73.21l28.08-27a7.59 7.59 0 0 0 .21-10.73L561 449.95c44.59-61.108 38.876-145.407-13.55-199.94zm-35.1 188.45c-44.392 42.677-114.975 41.287-157.652-3.104-42.678-44.39-41.29-114.973 3.1-157.652 44.39-42.679 114.972-41.293 157.652 3.096a111.5 111.5 0 0 1-3.1 157.66z" fill="url(#l)" fill-rule="nonzero"/><path d="M352.49 327.06c-12.54 0-12.56 19.49 0 19.49s12.56-19.49 0-19.49z" fill="url(#m)" fill-rule="nonzero"/><path d="M439.9 264.63c-33.75-.76-64.46 16.17-80.79 41.73-5.33 8.34 9.8 15.71 15.1 7.41 13.52-21.16 39.21-34.6 67-33.9 29.12.73 55.62 17.39 69.65 40.51 5.32 8.77 19.27.8 14-7.92-17.06-28-50.1-47-84.96-47.83z" fill="url(#n)" fill-rule="nonzero"/><path d="M559.68 244.09a155.89 155.89 0 0 0-223.11-1.68c-59 59.48-60 156.33-2.29 217.07 52.35 55.095 136.8 64.41 199.9 22.05l112.68 117.22a7.59 7.59 0 0 0 10.73.21l28.08-27a7.59 7.59 0 0 0 .21-10.73L573.19 444.02c44.594-61.096 38.898-145.389-13.51-199.93zm-35.1 188.37c-44.392 42.677-114.975 41.287-157.652-3.104-42.678-44.39-41.29-114.973 3.1-157.652C414.417 229.025 485 230.41 527.68 274.8a111.5 111.5 0 0 1-3.1 157.66z" fill="#294ACE" fill-rule="nonzero"/><path d="M364.72 321.13c-12.54 0-12.56 19.49 0 19.49s12.56-19.49 0-19.49zm87.41-62.42c-33.75-.76-64.46 16.17-80.79 41.73-5.33 8.34 9.8 15.71 15.1 7.41 13.52-21.16 39.21-34.6 67-33.9 29.12.73 55.62 17.39 69.65 40.51 5.32 8.77 19.27.8 14-7.92-17.09-28.08-50.09-47.08-84.96-47.83z" fill="#294ACE" fill-rule="nonzero"/></g></svg>