<svg data-name="Layer 1" xmlns="http://www.w3.org/2000/svg" xmlns:xlink="http://www.w3.org/1999/xlink" width="859.4" height="751.86"><defs><linearGradient id="a" x1="602" y1="795.44" x2="602" y2="79.05" gradientUnits="userSpaceOnUse"><stop offset="0" stop-color="gray" stop-opacity=".25"/><stop offset=".54" stop-color="gray" stop-opacity=".12"/><stop offset="1" stop-color="gray" stop-opacity=".1"/></linearGradient><linearGradient id="b" x1="344.92" y1="369.4" x2="505.4" y2="369.4" xlink:href="#a"/><linearGradient id="c" x1="445.92" y1="830.86" x2="445.92" y2="392.54" xlink:href="#a"/></defs><path d="M602 79.05L324 250.13S324 603 602 795.44C880 603 880 250.13 880 250.13z" transform="translate(-170.6 -79)" fill="url(#a)" opacity=".5"/><path d="M431.4 10.75l-269.7 166s0 342.31 269.7 529c269.7-186.72 269.7-529 269.7-529z" fill="#fff"/><path d="M433.01 10.75l-4.61 2.83v688.93c1.53 1.08 3.06 2.17 4.61 3.24 269.7-186.72 269.7-529 269.7-529z" fill="#294ace" opacity=".04"/><path fill="url(#b)" d="M366.11 347.07l50.84 46.6 63.03-90.92 25.42 21.19-88.45 112.1-72.03-80.5 21.19-8.47z" opacity=".7"/><path fill="#3ad29f" d="M378.11 349.87l41.24 37.8 58.43-85.92 20.62 17.19-79.05 103.1-58.43-65.3 17.19-6.87z"/><path d="M554.46 455a10.83 10.83 0 0 0-8.46 6.1c-3.47 7.19-10.35 19.79-16.67 21.77-4.11 1.28-10.1.2-15.38-1.34l-2.15-.66v-2.73S480.91 461 463.27 457v-12.56a22.85 22.85 0 0 0 5.25-34c4.73-1.74 7.85-4.75 7.85-8.18 0-5.39-7.74-9.76-17.28-9.76-8.3 0-15.23 3.3-16.9 7.71a23.42 23.42 0 0 0-6.8 43.39v12.5c-9.48-.09-36.65 3.89-48.51 50.42 0 0 1.68 1.44 4.28 3.46l-.35.91-31.53 81.22s-25.09 6.69-12.27 19c0 0 0-.19-.06-.51l6.3 14.5 1.12 2.4 7.43 15.86-.74 3.61-9.52 46.72h-13.11v7.41H350l-26.4 129.76h8.34l25.44-129.76h31.48l16.93 36.15h-8v8.34h12L420.65 769c-1.32 1.33-1.46 3.37 3 6.32l3.46 7.38h-9.86v5.56h12.47l20 42.64h16.68l-20.17-42.64h9v-2.81c9.15 1.33 16.7 1.33 18.09-.06 2.79-2.79 2.23-14.5-1.67-20.07a7.16 7.16 0 0 0-1.5-1.61c.46-11.7 2.12-35 8.19-49.12 8.36-19.51-4.46-41.26-4.46-41.26l-.4-8.09V662c4.6-.88 7.65-1.53 7.65-1.53s-8.36-27.32 0-41.26c5.81-9.68 6.23-23.93 2.78-36.6v-.09q-.26-.94-.54-1.86v-.1a41.48 41.48 0 0 0 5.07-5.4s-11.71-54.64 0-71.93l23.42 1.67v-3.07h20.91l18.4-25.65s12.82-3.35 16.73-14.5c2.48-7.35-6.8-7.43-13.44-6.68zm-155.59 96.45s7.61-13.39 11.36-27.13v-.05q.28-1 .53-2.08c.6.22 1.18.42 1.75.57 0 0 5.58 50.18-3.35 52.41 0 0 1.79 1.16 4.88 2.84l-3.28 1.31-18.88 7.55 1.21 4c-.68.13-1.44.28-2.25.45-5.39 1.15-13.38 3.39-19.78 7.4s7.18-24.41 27.81-47.27zM363.93 605a17.21 17.21 0 0 0-1.62 2.66l-2-5.29c.75.09 1.52.21 2.35.36-.03.01.52.94 1.27 2.27zm2.18 51.6l.57-2.89 12.94 27.62a67.12 67.12 0 0 1-16.14 1.34 11.66 11.66 0 0 0-2.86 1.92l5.49-28zm-7.27 37.07l1-5.29c1 1.34 3.43 2.75 8.56 4.07a59.62 59.62 0 0 0 6.27 1.22h-15.83zM426 745.59h9.74v-8.34h-13.68L405 701.1h7.62v-7.41h-9.08c6.07-.79 10.48-2 11.28-3.26 2.07-3.22-.71-14-5.44-18.83-3.14-13.27-10.61-42-17.44-46.27l9.78-1.82h.1l1.26-.23 3.36 11a177.18 177.18 0 0 0 23.42-3.14v.12a184.09 184.09 0 0 1-19.63 2.74l.07.24a174.74 174.74 0 0 0 19.43-2.38c-1.41 12.47-2.62 33.93 5.66 34.72a36.75 36.75 0 0 0 4.56.09v2.81h.18c.6 7.6 2.22 17.74 6.41 26.12l5.38 72.66a67.28 67.28 0 0 1-14.89.66l-11-23.31z" transform="translate(-170.6 -79)" fill="url(#c)" opacity=".5"/><path d="M228 511.94s-46.3 5.38-32.3 33.38a318 318 0 0 1 21.27 56.8l24.5-5.11s-9.69-45.76-18.31-51.15l23.15-4.31z" fill="#fda57d"/><path d="M223.16 545.86l23.15-4.31L228 511.94s-.54.06-1.49.21l18.18 29.4-23.15 4.31c8.61 5.38 18.31 51.15 18.31 51.15l-23 4.79.08.32 24.5-5.11s-9.66-45.77-18.27-51.15z" opacity=".05"/><path d="M231.68 591.82s-14.31 10.26-36 9.44c0 0-11.53 5.25 4.79 9.43s42.68 1.23 44.74-2-.86-14.14-5.68-18.6-7.85 1.73-7.85 1.73z" fill="#294ace"/><path d="M269.46 577.62s-1.08 21 6.46 36.07l5.38 72.68h17.23s0-35.53 8.08-54.38-4.31-39.84-4.31-39.84l-1.08-21.54z" fill="#fda57d"/><path d="M260.84 543.7s-7 40.92 4.31 42 44.15-5.92 44.15-5.92-8.08-26.38 0-39.84 5.38-36.07-3.77-50.07-19.38 0-19.38 0z" fill="#47e6b1"/><circle cx="280.23" cy="352.57" r="22.07" fill="#fda57d"/><path fill="#fda57d" d="M265.15 363.88h26.92v24.23h-26.92z"/><path d="M292.07 681s-16.15 7-37.15 1.62c0 0-12.38 2.69 2.69 10.23s41.46 10.23 44.15 7.54 2.15-14-1.62-19.38-8.07-.01-8.07-.01z" fill="#294ace"/><path d="M223.4 432l-31.77 81.84s-24.23 6.46-11.84 18.31c0 0-2.15-11.31 15.07-8.08 0 0 4.85 8.08 4.85 10.77s5.54-9 3.31-14.72a131.31 131.31 0 0 1 26.84-45.58s13.46-23.69 12.92-39.84zm106.63-29.09s17.23 8.08 25.84 5.38c6.1-1.91 12.74-14.08 16.1-21a10.46 10.46 0 0 1 8.16-5.85c6.41-.77 15.38-.69 12.89 6.41-3.77 10.77-16.15 14-16.15 14L359.1 426.6h-31.23z" fill="#fda57d"/><circle cx="276.19" cy="350.69" r="22.61" fill="#3d213c"/><ellipse cx="288.03" cy="330.5" rx="16.69" ry="9.42" fill="#3d213c"/><path opacity=".05" d="M269.55 585.78v2.71l32.36-4.14v-3.09l-32.36 4.52z"/><path d="M258.15 494.71l-35 14 14 45.76s42-2.15 57.61-18.31-25.84-48.46-25.84-48.46z" fill="#47e6b1"/><path d="M298.81 527a12.15 12.15 0 0 1-3.51 9.18c-13 13.47-44.4 17.21-54.45 18.07l.07.23s42-2.15 57.61-18.31a12.09 12.09 0 0 0 3.52-8.7" opacity=".05"/><path d="M268.4 382.72s-36.07-6.46-50.07 48.46c0 0 15.07 12.92 24.77 15.61 0 0 5.38 48.46-3.23 50.61 0 0 50.61 32.84 76.45 0 0 0-11.31-52.76 0-69.45l22.61 1.62v-25.85s-33.92-18.84-50.07-21z" fill="#294ace"/><path opacity=".05" d="M224.32 512.52l-2.17.44 10.45 31.14 1.31-.24-9.59-31.34zm114.59-106.16l2.14.65.69 19.59h-2.83v-20.24zm-116.47 28.16l-.71 1.85 19.12 11.96.54-2.09-18.95-11.72zm22.12 65.63l-3.16 1.26s53.09 25.72 70.59 3.18l-.58-2s-16.1 21.57-66.85-2.44z"/><path fill="#b0bec5" d="M171.52 611.87h71.6v7.16h-71.6zm5.37-86.82l8.95 20.59h15.22l-8.95-23.27-15.22 2.68z"/><path fill="#b0bec5" d="M278.92 744.32h16.11l-95.29-201.69-14.51 1.12 93.69 200.57z"/><path fill="#b0bec5" d="M157.2 744.32h8.06l35.8-182.57-5.37-6.27-38.49 188.84z"/><path fill="#eceff1" d="M186.93 547.95l-1.09-2.31h15.22l.54 1.15-14.67 1.16z"/><path opacity=".1" d="M186.93 547.95l-1.09-2.31h15.22l.54 1.15-14.67 1.16zm7.17 15.31l4.7 10.02-.55 2.79-4.86-9.32.71-3.49zm-2.87 48.61l-1.4 7.15h2.43l1.13-7.15h-2.16z"/><path fill="#b0bec5" d="M228.8 653.93h36.69v8.05H228.8zm18.8 43.85h36.69v5.37H247.6z"/><path opacity=".1" d="M252.28 653.93l3.81 8.06h2.02l-2.91-8.06h-2.92zm20.74 43.85l2.54 5.37h2.24l-2.39-5.37h-2.39zm-40.64-85.91l3.39 7.15h1.83l-3.58-7.15h-1.64z"/><path d="M165.29 48a3.67 3.67 0 0 1-2-4.44 1.77 1.77 0 0 0 .08-.41 1.84 1.84 0 0 0-3.31-1.22 1.77 1.77 0 0 0-.2.36 3.67 3.67 0 0 1-4.44 2 1.77 1.77 0 0 0-.41-.08 1.84 1.84 0 0 0-1.22 3.31 1.77 1.77 0 0 0 .36.2 3.67 3.67 0 0 1 2 4.44 1.77 1.77 0 0 0-.08.41 1.84 1.84 0 0 0 3.33 1.23 1.77 1.77 0 0 0 .2-.36 3.67 3.67 0 0 1 4.44-2 1.77 1.77 0 0 0 .41.08 1.84 1.84 0 0 0 1.22-3.31 1.77 1.77 0 0 0-.38-.21zm-146 325a3.67 3.67 0 0 1-2-4.44 1.77 1.77 0 0 0 .08-.41 1.84 1.84 0 0 0-3.31-1.22 1.77 1.77 0 0 0-.2.36 3.67 3.67 0 0 1-4.44 2 1.77 1.77 0 0 0-.41-.08 1.84 1.84 0 0 0-1.22 3.31 1.77 1.77 0 0 0 .36.2 3.67 3.67 0 0 1 2 4.44 1.77 1.77 0 0 0-.08.41 1.84 1.84 0 0 0 3.33 1.23 1.77 1.77 0 0 0 .2-.36 3.67 3.67 0 0 1 4.44-2 1.77 1.77 0 0 0 .41.08 1.84 1.84 0 0 0 1.22-3.31 1.77 1.77 0 0 0-.38-.21z" fill="#4d8af0" opacity=".5"/><circle cx="748.4" cy="254" r="6" fill="#f55f44" opacity=".5"/><circle cx="121.4" cy="683" r="6" fill="#f55f44" opacity=".5"/><circle cx="850.4" cy="485" r="6" fill="#f55f44" opacity=".5"/><path d="M704.29 77a3.67 3.67 0 0 1-2-4.44 1.77 1.77 0 0 0 .08-.41 1.84 1.84 0 0 0-3.31-1.22 1.77 1.77 0 0 0-.2.36 3.67 3.67 0 0 1-4.44 2 1.77 1.77 0 0 0-.41-.08 1.84 1.84 0 0 0-1.22 3.31 1.77 1.77 0 0 0 .36.2 3.67 3.67 0 0 1 2 4.44 1.77 1.77 0 0 0-.08.41 1.84 1.84 0 0 0 3.33 1.23 1.77 1.77 0 0 0 .2-.36 3.67 3.67 0 0 1 4.44-2 1.77 1.77 0 0 0 .41.08 1.84 1.84 0 0 0 1.22-3.31 1.77 1.77 0 0 0-.38-.21zm100 628a3.67 3.67 0 0 1-2-4.44 1.77 1.77 0 0 0 .08-.41 1.84 1.84 0 0 0-3.31-1.22 1.77 1.77 0 0 0-.2.36 3.67 3.67 0 0 1-4.44 2 1.77 1.77 0 0 0-.41-.08 1.84 1.84 0 0 0-1.22 3.31 1.77 1.77 0 0 0 .36.2 3.67 3.67 0 0 1 2 4.44 1.77 1.77 0 0 0-.08.41 1.84 1.84 0 0 0 3.33 1.23 1.77 1.77 0 0 0 .2-.36 3.67 3.67 0 0 1 4.44-2 1.77 1.77 0 0 0 .41.08 1.84 1.84 0 0 0 1.22-3.31 1.77 1.77 0 0 0-.38-.21zm-792-522a3.67 3.67 0 0 1-2-4.44 1.77 1.77 0 0 0 .08-.41 1.84 1.84 0 0 0-3.31-1.22 1.77 1.77 0 0 0-.2.36 3.67 3.67 0 0 1-4.44 2 1.77 1.77 0 0 0-.41-.08 1.84 1.84 0 0 0-1.22 3.31 1.77 1.77 0 0 0 .36.2 3.67 3.67 0 0 1 2 4.44 1.77 1.77 0 0 0-.08.41 1.84 1.84 0 0 0 3.33 1.23 1.77 1.77 0 0 0 .2-.36 3.67 3.67 0 0 1 4.44-2 1.77 1.77 0 0 0 .41.08 1.84 1.84 0 0 0 1.22-3.31 1.77 1.77 0 0 0-.38-.21z" fill="#4d8af0" opacity=".5"/><circle cx="79.4" cy="284" r="6" fill="#47e6b1" opacity=".5"/><circle cx="853.4" cy="332" r="6" fill="#47e6b1" opacity=".5"/><g opacity=".5" fill="#47e6b1"><path d="M583.4 0h3v17h-3z"/><path d="M593.4 7v3h-17V7z"/></g><g opacity=".5" fill="#47e6b1"><path d="M594.4 666h3v17h-3z"/><path d="M604.4 673v3h-17v-3z"/></g><g opacity=".5" fill="#47e6b1"><path d="M26.4 702h3v17h-3z"/><path d="M36.4 709v3h-17v-3z"/></g><g opacity=".5" fill="#47e6b1"><path d="M709.4 396h3v17h-3z"/><path d="M719.4 403v3h-17v-3z"/></g><path fill="#47e6b1" opacity=".5" d="M795.61 123.02l6.44 5.9 9.13-13.42 3.22 2.69-12.35 16.1-9.13-10.2 2.69-1.07z"/></svg>